<svg xmlns="http://www.w3.org/2000/svg" xmlns:xlink="http://www.w3.org/1999/xlink" width="1280" zoomAndPan="magnify" viewBox="0 0 960 540.000001" height="720" preserveAspectRatio="xMidYMid meet" version="1.2"><defs><clipPath id="349fdf0afd"><path d="M 144.246094 112 L 815.75 112 L 815.75 532.667969 L 144.246094 532.667969 Z M 144.246094 112 "/></clipPath><clipPath id="fb0a26884a"><path d="M 398 6.390625 L 561 6.390625 L 561 261 L 398 261 Z M 398 6.390625 "/></clipPath></defs><g id="90c6241ed1"><g clip-rule="nonzero" clip-path="url(#349fdf0afd)"><path style=" stroke:none;fill-rule:nonzero;fill:#0cc0df;fill-opacity:1;" d="M 322.089844 532.3125 C 371.207031 532.3125 412.261719 509.730469 412.261719 467.214844 C 412.261719 443.3125 388.363281 428.800781 367.101562 428.800781 C 356.546875 428.800781 347.164062 432.757812 340.566406 440.675781 C 340.566406 412.816406 363.144531 399.476562 387.042969 399.476562 C 409.621094 399.476562 433.519531 412.816406 437.480469 437.890625 C 441.4375 424.546875 442.757812 411.351562 442.757812 399.476562 C 442.757812 279.984375 262.273438 225.585938 262.273438 144.65625 C 262.273438 135.417969 264.910156 124.714844 271.507812 112.839844 C 218.433594 139.378906 194.535156 187.175781 194.535156 232.332031 C 194.535156 270.746094 211.835938 307.988281 242.332031 329.246094 C 198.492188 320.007812 166.675781 298.75 160.078125 270.890625 C 148.203125 300.070312 144.246094 326.605469 144.246094 350.503906 C 144.246094 476.597656 243.796875 532.3125 322.089844 532.3125 Z M 637.90625 532.3125 C 716.199219 532.3125 815.75 476.597656 815.75 350.503906 C 815.75 326.605469 811.792969 300.070312 799.769531 270.890625 C 793.171875 298.75 761.355469 320.007812 717.519531 329.246094 C 748.015625 307.988281 765.316406 270.890625 765.316406 232.332031 C 765.316406 187.175781 741.417969 139.378906 688.339844 112.839844 C 694.9375 124.714844 697.578125 135.417969 697.578125 144.65625 C 697.578125 225.585938 517.09375 279.984375 517.09375 399.476562 C 517.09375 411.351562 518.410156 424.695312 522.371094 437.890625 C 526.328125 412.671875 550.226562 399.476562 572.808594 399.476562 C 596.707031 399.476562 619.285156 412.816406 619.285156 440.675781 C 612.6875 432.757812 603.304688 428.800781 592.746094 428.800781 C 571.488281 428.800781 547.589844 443.460938 547.589844 467.214844 C 547.734375 509.730469 588.789062 532.3125 637.90625 532.3125 Z M 637.90625 532.3125 "/></g><g clip-rule="nonzero" clip-path="url(#fb0a26884a)"><path style=" stroke:none;fill-rule:nonzero;fill:#ff66c4;fill-opacity:1;" d="M 458.738281 260.191406 C 449.503906 241.570312 442.757812 221.777344 442.757812 205.792969 C 442.757812 177.9375 461.378906 163.277344 479.851562 163.277344 C 498.324219 163.277344 516.945312 177.9375 516.945312 205.792969 C 516.945312 221.777344 510.347656 241.570312 500.964844 260.191406 C 536.738281 250.953125 560.636719 209.753906 560.636719 157.996094 C 560.636719 108.878906 538.058594 50.527344 479.707031 6.6875 C 421.351562 50.527344 398.773438 108.878906 398.773438 157.996094 C 399.066406 209.753906 422.964844 250.804688 458.738281 260.191406 Z M 458.738281 260.191406 "/></g><path style=" stroke:none;fill-rule:nonzero;fill:#38b6ff;fill-opacity:1;" d="M 554.332031 261.507812 C 620.75 227.054688 649.925781 181.894531 649.925781 143.335938 C 649.925781 107.5625 623.390625 76.917969 578.230469 66.363281 C 591.574219 82.34375 598.171875 106.242188 598.171875 132.777344 C 598.171875 180.578125 579.550781 233.652344 554.332031 261.507812 Z M 405.664062 261.507812 C 380.445312 233.652344 361.824219 180.578125 361.824219 132.777344 C 361.824219 106.242188 368.421875 82.34375 381.765625 66.363281 C 336.605469 76.917969 310.070312 107.5625 310.070312 143.335938 C 310.070312 181.894531 339.390625 227.054688 405.664062 261.507812 Z M 405.664062 261.507812 "/></g></svg>